<svg xmlns="http://www.w3.org/2000/svg" xmlns:xlink="http://www.w3.org/1999/xlink" xmlns:lucid="lucid" width="840" height="730"><g transform="translate(-60 -60)" lucid:page-tab-id="FU5JHL_F7YIb"><path d="M431.5 86c0-3.3 2.7-6 6-6h108c3.3 0 6 2.7 6 6v68c0 3.3-2.7 6-6 6h-108c-3.3 0-6-2.7-6-6z" stroke="#000" stroke-opacity="0" stroke-width="3" fill="#237a79"/><use xlink:href="#a" transform="matrix(1,0,0,1,436.5,85) translate(20.87777777777778 28.429166666666667)"/><use xlink:href="#b" transform="matrix(1,0,0,1,436.5,85) translate(81.34444444444443 28.429166666666667)"/><use xlink:href="#c" transform="matrix(1,0,0,1,436.5,85) translate(4.144444444444446 56.362500000000004)"/><path d="M80 246c0-3.3 2.7-6 6-6h108c3.3 0 6 2.7 6 6v68c0 3.3-2.7 6-6 6H86c-3.3 0-6-2.7-6-6z" stroke="#000" stroke-opacity="0" stroke-width="3" fill="#237a79"/><use xlink:href="#d" transform="matrix(1,0,0,1,85,245) translate(14.866666666666667 28.429166666666667)"/><use xlink:href="#e" transform="matrix(1,0,0,1,85,245) translate(25.788888888888888 56.362500000000004)"/><path d="M760 246c0-3.3 2.7-6 6-6h108c3.3 0 6 2.7 6 6v68c0 3.3-2.7 6-6 6H766c-3.3 0-6-2.7-6-6z" stroke="#000" stroke-opacity="0" stroke-width="3" fill="#237a79"/><use xlink:href="#f" transform="matrix(1,0,0,1,765,245) translate(24.7 28.429166666666667)"/><use xlink:href="#g" transform="matrix(1,0,0,1,765,245) translate(77.52222222222223 28.429166666666667)"/><use xlink:href="#h" transform="matrix(1,0,0,1,765,245) translate(20.6 56.362500000000004)"/><path d="M300 246c0-3.3 2.7-6 6-6h108c3.3 0 6 2.7 6 6v68c0 3.3-2.7 6-6 6H306c-3.3 0-6-2.7-6-6z" stroke="#000" stroke-opacity="0" stroke-width="3" fill="#237a79"/><use xlink:href="#i" transform="matrix(1,0,0,1,305,245) translate(14.855555555555547 28.429166666666667)"/><use xlink:href="#j" transform="matrix(1,0,0,1,305,245) translate(18.511111111111106 56.362500000000004)"/><path d="M80 406c0-3.3 2.7-6 6-6h108c3.3 0 6 2.7 6 6v68c0 3.3-2.7 6-6 6H86c-3.3 0-6-2.7-6-6z" stroke="#000" stroke-opacity="0" stroke-width="3" fill="#00c4b4"/><use xlink:href="#k" transform="matrix(1,0,0,1,85,405) translate(17.066666666666663 28.429166666666667)"/><use xlink:href="#l" transform="matrix(1,0,0,1,85,405) translate(12.87777777777778 56.362500000000004)"/><use xlink:href="#m" transform="matrix(1,0,0,1,85,405) translate(63.455555555555556 56.362500000000004)"/><path d="M660 406c0-3.3 2.7-6 6-6h108c3.3 0 6 2.7 6 6v68c0 3.3-2.7 6-6 6H666c-3.3 0-6-2.7-6-6z" stroke="#000" stroke-opacity="0" stroke-width="3" fill="#00c4b4"/><use xlink:href="#n" transform="matrix(1,0,0,1,665,405) translate(37.233333333333334 43.74166666666667)"/><path d="M300 566c0-3.3 2.7-6 6-6h108c3.3 0 6 2.7 6 6v68c0 3.3-2.7 6-6 6H306c-3.3 0-6-2.7-6-6z" stroke="#000" stroke-opacity="0" stroke-width="3" fill="#c3a48c"/><use xlink:href="#o" transform="matrix(1,0,0,1,305,565) translate(36.48888888888889 43.74166666666667)"/><path d="M160 566c0-3.3 2.7-6 6-6h108c3.3 0 6 2.7 6 6v68c0 3.3-2.7 6-6 6H166c-3.3 0-6-2.7-6-6z" stroke="#000" stroke-opacity="0" stroke-width="3" fill="#c3a48c"/><use xlink:href="#p" transform="matrix(1,0,0,1,165,565) translate(38.044444444444444 28.429166666666667)"/><use xlink:href="#q" transform="matrix(1,0,0,1,165,565) translate(18.633333333333333 56.362500000000004)"/><path d="M383 406c0-3.3 2.7-6 6-6h108c3.3 0 6 2.7 6 6v68c0 3.3-2.7 6-6 6H389c-3.3 0-6-2.7-6-6z" stroke="#000" stroke-opacity="0" stroke-width="3" fill="#00c4b4"/><use xlink:href="#r" transform="matrix(1,0,0,1,388,405) translate(21.62222222222222 43.74166666666667)"/><path d="M421 280h93c3.3 0 6 2.7 6 6v68c0 3.3 2.7 6 6 6h188c3.3 0 6 2.7 6 6v15.5" stroke="#999" stroke-width="2" fill="none"/><path d="M421.03 281H420v-2h1.03z" fill="#999"/><path d="M720 396.76l-4.64-14.26h9.28z" stroke="#999" stroke-width="2" fill="#999"/><path d="M820 321v33c0 3.3-2.7 6-6 6h-88c-3.3 0-6 2.7-6 6v15.5" stroke="#999" stroke-width="2" fill="none"/><path d="M821 321.03h-2V320h2z" fill="#999"/><path d="M720 396.76l-4.64-14.26h9.28z" stroke="#999" stroke-width="2" fill="#999"/><path d="M360 321v33c0 3.3 2.7 6 6 6h71c3.3 0 6 2.7 6 6v15.5" stroke="#0b9da2" stroke-width="2" fill="none"/><path d="M361 321.03h-2V320h2z" fill="#0b9da2"/><path d="M443 396.76l-4.64-14.26h9.28z" stroke="#0b9da2" stroke-width="2" fill="#0b9da2"/><path d="M360 321v220.5" stroke="#ab864b" stroke-width="2" fill="none"/><path d="M361 321.03h-2V320h2z" fill="#ab864b"/><path d="M360 556.76l-4.64-14.26h9.28z" stroke="#ab864b" stroke-width="2" fill="#ab864b"/><path d="M140 321v60.5" stroke="#0b9da2" stroke-width="2" fill="none"/><path d="M141 321.03h-2V320h2z" fill="#0b9da2"/><path d="M140 396.76l-4.64-14.26h9.28z" stroke="#0b9da2" stroke-width="2" fill="#0b9da2"/><path d="M140 321v15c0 3.3 2.7 6 6 6h68c3.3 0 6 2.7 6 6v193.5" stroke="#ab864b" stroke-width="2" fill="none"/><path d="M141 321.03h-2V320h2z" fill="#ab864b"/><path d="M220 556.76l-4.64-14.26h9.28z" stroke="#ab864b" stroke-width="2" fill="#ab864b"/><path d="M491.5 161v33c0 3.3-2.7 6-6 6H366c-3.3 0-6 2.7-6 6v15.5" stroke="#237a79" stroke-width="2" fill="none"/><path d="M492.5 161.03h-2V160h2z" fill="#237a79"/><path d="M360 236.76l-4.64-14.26h9.28z" stroke="#237a79" stroke-width="2" fill="#237a79"/><path d="M430.5 120H146c-3.3 0-6 2.7-6 6v95.5" stroke="#237a79" stroke-width="2" fill="none"/><path d="M431.5 121h-1.03v-2h1.03z" fill="#237a79"/><path d="M140 236.76l-4.64-14.26h9.28z" stroke="#237a79" stroke-width="2" fill="#237a79"/><path d="M552.5 120H814c3.3 0 6 2.7 6 6v95.5" stroke="#237a79" stroke-width="2" fill="none"/><path d="M552.53 121h-1.03v-2h1.03z" fill="#237a79"/><path d="M820 236.76l-4.64-14.26h9.28z" stroke="#237a79" stroke-width="2" fill="#237a79"/><path d="M540 246c0-3.3 2.7-6 6-6h108c3.3 0 6 2.7 6 6v68c0 3.3-2.7 6-6 6H546c-3.3 0-6-2.7-6-6z" stroke="#000" stroke-opacity="0" stroke-width="3" fill="#237a79"/><use xlink:href="#s" transform="matrix(1,0,0,1,545,245) translate(15.455555555555556 28.429166666666667)"/><use xlink:href="#t" transform="matrix(1,0,0,1,545,245) translate(33.333333333333336 56.362500000000004)"/><path d="M600 321v33c0 3.3 2.7 6 6 6h108c3.3 0 6 2.7 6 6v15.5" stroke="#999" stroke-width="2" fill="none"/><path d="M601 321.03h-2V320h2z" fill="#999"/><path d="M720 396.76l-4.64-14.26h9.28z" stroke="#999" stroke-width="2" fill="#999"/><path d="M504 440h52.4c3.3 0 6-2.7 6-6v-95.5" stroke="#237a79" stroke-width="2" fill="none"/><path d="M504.03 441H503v-2h1.03z" fill="#237a79"/><path d="M562.4 323.24l4.64 14.26h-9.28z" stroke="#237a79" stroke-width="2" fill="#237a79"/><path d="M760 566c0-3.3 2.7-6 6-6h108c3.3 0 6 2.7 6 6v68c0 3.3-2.7 6-6 6H766c-3.3 0-6-2.7-6-6z" stroke="#000" stroke-opacity="0" stroke-width="3" fill="#c3a48c"/><use xlink:href="#u" transform="matrix(1,0,0,1,765,565) translate(0.75555555555556 43.74166666666667)"/><use xlink:href="#v" transform="matrix(1,0,0,1,765,565) translate(43.13333333333333 43.74166666666667)"/><use xlink:href="#w" transform="matrix(1,0,0,1,765,565) translate(55.4 43.74166666666667)"/><path d="M820 321v220.5" stroke="#ab864b" stroke-width="2" fill="none"/><path d="M821 321.03h-2V320h2z" fill="#ab864b"/><path d="M820 556.76l-4.64-14.26h9.28z" stroke="#ab864b" stroke-width="2" fill="#ab864b"/><path d="M211.5 751c0-3.3 2.7-6 6-6h8c3.3 0 6 2.7 6 6v8c0 3.3-2.7 6-6 6h-8c-3.3 0-6-2.7-6-6z" stroke="#000" stroke-opacity="0" stroke-width="3" fill="#237a79"/><path d="M391.5 751c0-3.3 2.7-6 6-6h8c3.3 0 6 2.7 6 6v8c0 3.3-2.7 6-6 6h-8c-3.3 0-6-2.7-6-6z" stroke="#000" stroke-opacity="0" stroke-width="3" fill="#00c4b4"/><path d="M591.5 751c0-3.3 2.7-6 6-6h8c3.3 0 6 2.7 6 6v8c0 3.3-2.7 6-6 6h-8c-3.3 0-6-2.7-6-6z" stroke="#000" stroke-opacity="0" stroke-width="3" fill="#c3a48c"/><path d="M231.5 746c0-3.3 2.7-6 6-6h128c3.3 0 6 2.7 6 6v18c0 3.3-2.7 6-6 6h-128c-3.3 0-6-2.7-6-6z" stroke="#000" stroke-opacity="0" stroke-width="3" fill="#fff" fill-opacity="0"/><g><use xlink:href="#x" transform="matrix(1,0,0,1,236.5,745) translate(0 17.49333333333333)"/><use xlink:href="#y" transform="matrix(1,0,0,1,236.5,745) translate(63.022222222222204 17.49333333333333)"/></g><path d="M411.5 746c0-3.3 2.7-6 6-6h128c3.3 0 6 2.7 6 6v18c0 3.3-2.7 6-6 6h-128c-3.3 0-6-2.7-6-6z" stroke="#000" stroke-opacity="0" stroke-width="3" fill="#fff" fill-opacity="0"/><g><use xlink:href="#x" transform="matrix(1,0,0,1,416.5,745) translate(0 17.49333333333333)"/><use xlink:href="#z" transform="matrix(1,0,0,1,416.5,745) translate(63.022222222222204 17.49333333333333)"/></g><path d="M611.5 746c0-3.3 2.7-6 6-6h148c3.3 0 6 2.7 6 6v13c0 3.3-2.7 6-6 6h-148c-3.3 0-6-2.7-6-6z" stroke="#000" stroke-opacity="0" stroke-width="3" fill="#fff" fill-opacity="0"/><g><use xlink:href="#A" transform="matrix(1,0,0,1,616.5,745) translate(0 17.49333333333333)"/><use xlink:href="#z" transform="matrix(1,0,0,1,616.5,745) translate(82.77333333333331 17.49333333333333)"/></g><path d="M491.5 161v33c0 3.3 2.7 6 6 6H594c3.3 0 6 2.7 6 6v15.5" stroke="#237a79" stroke-width="2" fill="none"/><path d="M492.5 161.03h-2V160h2z" fill="#237a79"/><path d="M600 236.76l-4.64-14.26h9.28z" stroke="#237a79" stroke-width="2" fill="#237a79"/><defs><path fill="#fff" d="M90-656h83v275h305v-275h84V0h-84v-309H173V0H90v-656" id="B"/><path fill="#fff" d="M271 12C125 12 46-91 46-242c0-152 79-256 225-256s225 104 225 256c0 151-79 254-225 254zm0-442c-100 0-140 84-140 188S172-56 271-56s140-82 140-186-40-188-140-188" id="C"/><path fill="#fff" d="M377-297c-1-82-18-130-91-130-37 0-77 25-122 75V0H82v-486h68l7 70h3c38-39 82-81 151-82 77 0 114 36 134 93 44-45 84-93 160-93 109 0 148 74 148 190V0h-82v-297c-1-81-18-130-90-130-37 0-77 25-122 75V0h-82v-297" id="D"/><path fill="#fff" d="M279 12C129 6 46-87 46-242c0-148 77-256 218-256 148 0 205 117 191 273H127c4 97 64 171 162 171 51 0 87-18 121-38l29 54c-42 25-92 53-160 50zm107-291c7-109-70-183-170-143-53 21-83 73-90 143h260" id="E"/><g id="a"><use transform="matrix(0.022222222222222223,0,0,0.022222222222222223,0,0)" xlink:href="#B"/><use transform="matrix(0.022222222222222223,0,0,0.022222222222222223,14.488888888888889,0)" xlink:href="#C"/><use transform="matrix(0.022222222222222223,0,0,0.022222222222222223,26.533333333333328,0)" xlink:href="#D"/><use transform="matrix(0.022222222222222223,0,0,0.022222222222222223,44.955555555555556,0)" xlink:href="#E"/></g><path fill="#fff" d="M277-710h60L70 160H10" id="F"/><use transform="matrix(0.022222222222222223,0,0,0.022222222222222223,0,0)" xlink:href="#F" id="b"/><path fill="#fff" d="M564-331C562-123 464-4 258 0H90v-656h164c204-1 312 119 310 325zm-86 0c0-161-72-257-230-257h-75v520h75c158 1 230-103 230-263" id="G"/><path fill="#fff" d="M201 12C118 12 58-40 58-126c0-53 24-94 72-122s123-49 227-60c-1-72-27-121-100-122-60-1-108 28-145 52l-33-57c46-28 114-63 191-63 121 0 168 82 169 200V0h-68c-4-19-2-42-9-58-42 33-92 70-161 70zm23-66c62-5 93-31 133-65v-135c-89 14-171 22-207 80-36 57 6 125 74 120" id="H"/><path fill="#fff" d="M374-191C441-40 261 57 110-7 79-20 51-36 28-55l41-55c40 31 77 52 143 58 87 8 128-92 60-134-81-50-214-50-220-174-7-157 230-170 318-83l-39 52c-30-22-63-38-111-43-80-8-120 85-56 122 69 40 177 47 210 121" id="I"/><path fill="#fff" d="M297-427c-68 0-89 36-133 75V0H82v-712h82c0 99 1 199-3 294 44-38 85-80 162-80 111 0 147 74 148 190V0h-82v-297c-1-82-18-130-92-130" id="J"/><path fill="#fff" d="M297 12c-57 0-104-28-139-60h-3l-7 48H82v-712h82c0 94 1 190-2 282 38-32 88-68 152-68 139 0 193 105 193 247 0 150-68 263-210 263zm125-262c0-101-29-177-128-179-39 0-83 22-130 66v255c33 29 70 51 119 51 100 0 139-86 139-193" id="K"/><path fill="#fff" d="M334-416c-89-26-142 29-170 104V0H82v-486h68l7 88h3c31-63 101-124 190-90" id="L"/><path fill="#fff" d="M248 12C114 10 43-95 47-242c4-146 72-256 211-256 65 0 96 26 136 56-6-85-3-179-4-270h83V0h-68l-7-57h-3c-35 32-83 69-147 69zm24-441c-97 0-138 83-140 186-2 104 39 186 134 186 59 0 90-30 124-67v-254c-35-31-64-51-118-51" id="M"/><g id="c"><use transform="matrix(0.022222222222222223,0,0,0.022222222222222223,0,0)" xlink:href="#G"/><use transform="matrix(0.022222222222222223,0,0,0.022222222222222223,13.666666666666668,0)" xlink:href="#H"/><use transform="matrix(0.022222222222222223,0,0,0.022222222222222223,25.044444444444444,0)" xlink:href="#I"/><use transform="matrix(0.022222222222222223,0,0,0.022222222222222223,34.355555555555554,0)" xlink:href="#J"/><use transform="matrix(0.022222222222222223,0,0,0.022222222222222223,46.44444444444444,0)" xlink:href="#K"/><use transform="matrix(0.022222222222222223,0,0,0.022222222222222223,58.77777777777778,0)" xlink:href="#C"/><use transform="matrix(0.022222222222222223,0,0,0.022222222222222223,70.51111111111112,0)" xlink:href="#H"/><use transform="matrix(0.022222222222222223,0,0,0.022222222222222223,81.8888888888889,0)" xlink:href="#L"/><use transform="matrix(0.022222222222222223,0,0,0.022222222222222223,89.37777777777778,0)" xlink:href="#M"/></g><path fill="#fff" d="M369-267c-33-107-67-211-97-321h-4c-28 111-63 214-96 321h197zm21 67H151L88 0H3l222-656h94L541 0h-89" id="N"/><path fill="#fff" d="M297 12c-57 0-97-28-135-56 3 81 2 165 2 249H82v-691h68l7 56h3c39-32 90-68 155-68 140 0 192 106 192 248 0 150-68 262-210 262zm-3-441c-58 0-90 33-130 66v255c34 29 69 51 119 51 100 0 139-86 139-193 0-101-29-179-128-179" id="O"/><path fill="#fff" d="M181-639c0 30-26 53-57 53s-57-23-57-53c0-31 26-53 57-53s57 22 57 53zM82-486h82V0H82v-486" id="P"/><path fill="#fff" d="M297-427c-68 0-89 36-133 75V0H82v-486h68l7 70h3c43-40 85-82 163-82 111 0 147 74 148 190V0h-82v-297c-1-82-18-130-92-130" id="Q"/><path fill="#fff" d="M235 12C135 12 96-49 96-150v-269H24v-62l76-5 10-136h69v136h131v67H179v270c1 58 17 94 75 94 19 0 41-7 55-13l16 62c-25 8-58 18-90 18" id="R"/><path fill="#fff" d="M41-282h230v63H41v-63" id="S"/><g id="d"><use transform="matrix(0.022222222222222223,0,0,0.022222222222222223,0,0)" xlink:href="#N"/><use transform="matrix(0.022222222222222223,0,0,0.022222222222222223,12.088888888888889,0)" xlink:href="#O"/><use transform="matrix(0.022222222222222223,0,0,0.022222222222222223,24.422222222222224,0)" xlink:href="#O"/><use transform="matrix(0.022222222222222223,0,0,0.022222222222222223,36.75555555555556,0)" xlink:href="#C"/><use transform="matrix(0.022222222222222223,0,0,0.022222222222222223,48.800000000000004,0)" xlink:href="#P"/><use transform="matrix(0.022222222222222223,0,0,0.022222222222222223,54.266666666666666,0)" xlink:href="#Q"/><use transform="matrix(0.022222222222222223,0,0,0.022222222222222223,66.42222222222223,0)" xlink:href="#R"/><use transform="matrix(0.022222222222222223,0,0,0.022222222222222223,73.35555555555555,0)" xlink:href="#S"/></g><g id="e"><use transform="matrix(0.022222222222222223,0,0,0.022222222222222223,0,0)" xlink:href="#D"/><use transform="matrix(0.022222222222222223,0,0,0.022222222222222223,18.422222222222224,0)" xlink:href="#E"/><use transform="matrix(0.022222222222222223,0,0,0.022222222222222223,29.444444444444446,0)" xlink:href="#Q"/><use transform="matrix(0.022222222222222223,0,0,0.022222222222222223,41.6,0)" xlink:href="#R"/><use transform="matrix(0.022222222222222223,0,0,0.022222222222222223,49.111111111111114,0)" xlink:href="#I"/></g><path fill="#fff" d="M484-238C550-39 325 64 144-14 105-31 71-55 42-85l50-58c40 43 104 74 181 82 133 14 185-145 71-202-108-54-270-71-270-231 0-151 176-210 315-152 34 14 62 35 85 59l-45 54c-37-35-82-56-149-62-101-9-166 104-87 165 91 70 252 74 291 192" id="T"/><g id="f"><use transform="matrix(0.022222222222222223,0,0,0.022222222222222223,0,0)" xlink:href="#T"/><use transform="matrix(0.022222222222222223,0,0,0.022222222222222223,11.866666666666667,0)" xlink:href="#J"/><use transform="matrix(0.022222222222222223,0,0,0.022222222222222223,23.955555555555556,0)" xlink:href="#C"/><use transform="matrix(0.022222222222222223,0,0,0.022222222222222223,36,0)" xlink:href="#O"/></g><use transform="matrix(0.022222222222222223,0,0,0.022222222222222223,0,0)" xlink:href="#F" id="g"/><path fill="#fff" d="M548-192C547 22 309 4 90 0v-656c190 2 420-31 420 160 0 75-46 128-114 143v4c89 14 152 59 152 157zM428-489c4-116-137-100-255-101v214h97c99 0 155-27 158-113zm38 293c0-131-156-119-293-118v248c143 4 293 8 293-130" id="U"/><path fill="#fff" d="M24-486h84c34 138 73 272 101 416h4c33-142 72-278 108-416h80c37 138 76 275 110 416h4c30-142 67-278 101-416h78L564 0H464c-35-133-73-263-103-401h-4C327-263 289-134 255 0h-96" id="V"/><g id="h"><use transform="matrix(0.022222222222222223,0,0,0.022222222222222223,0,0)" xlink:href="#U"/><use transform="matrix(0.022222222222222223,0,0,0.022222222222222223,13.066666666666666,0)" xlink:href="#L"/><use transform="matrix(0.022222222222222223,0,0,0.022222222222222223,20.555555555555557,0)" xlink:href="#C"/><use transform="matrix(0.022222222222222223,0,0,0.022222222222222223,32.51111111111111,0)" xlink:href="#V"/><use transform="matrix(0.022222222222222223,0,0,0.022222222222222223,48.46666666666667,0)" xlink:href="#I"/><use transform="matrix(0.022222222222222223,0,0,0.022222222222222223,57.77777777777778,0)" xlink:href="#E"/></g><path fill="#fff" d="M82-712h81v482h3l207-256h91L301-291 486 0h-90L254-234l-91 106V0H82v-712" id="W"/><path fill="#fff" d="M274 12C124 12 46-89 46-242c0-154 84-249 234-256 64-3 108 29 142 58l-41 53c-27-22-53-43-98-43-104 0-152 81-152 188S178-60 281-56c50 2 87-25 114-49l37 54c-39 34-91 63-158 63" id="X"/><g id="i"><use transform="matrix(0.022222222222222223,0,0,0.022222222222222223,0,0)" xlink:href="#T"/><use transform="matrix(0.022222222222222223,0,0,0.022222222222222223,11.866666666666667,0)" xlink:href="#W"/><use transform="matrix(0.022222222222222223,0,0,0.022222222222222223,22.866666666666667,0)" xlink:href="#P"/><use transform="matrix(0.022222222222222223,0,0,0.022222222222222223,28.333333333333336,0)" xlink:href="#Q"/><use transform="matrix(0.022222222222222223,0,0,0.022222222222222223,40.488888888888894,0)" xlink:href="#X"/><use transform="matrix(0.022222222222222223,0,0,0.022222222222222223,50.4,0)" xlink:href="#H"/><use transform="matrix(0.022222222222222223,0,0,0.022222222222222223,61.77777777777779,0)" xlink:href="#L"/><use transform="matrix(0.022222222222222223,0,0,0.022222222222222223,69.26666666666668,0)" xlink:href="#E"/></g><path fill="#fff" d="M442-472c0-133-139-117-269-117v244c135 5 269 6 269-127zm83 0c1 106-62 164-147 186L544 0h-94L292-277H173V0H90v-656h205c137 1 229 48 230 184" id="Y"/><path fill="#fff" d="M224 12C112 12 76-61 75-178v-308h83v297c1 82 17 130 91 130 69 0 90-36 131-82v-345h82V0h-68l-7-76h-3c-42 46-81 88-160 88" id="Z"/><g id="j"><use transform="matrix(0.022222222222222223,0,0,0.022222222222222223,0,0)" xlink:href="#Y"/><use transform="matrix(0.022222222222222223,0,0,0.022222222222222223,12.68888888888889,0)" xlink:href="#C"/><use transform="matrix(0.022222222222222223,0,0,0.022222222222222223,24.733333333333334,0)" xlink:href="#Z"/><use transform="matrix(0.022222222222222223,0,0,0.022222222222222223,36.82222222222222,0)" xlink:href="#R"/><use transform="matrix(0.022222222222222223,0,0,0.022222222222222223,44.333333333333336,0)" xlink:href="#P"/><use transform="matrix(0.022222222222222223,0,0,0.022222222222222223,49.800000000000004,0)" xlink:href="#Q"/><use transform="matrix(0.022222222222222223,0,0,0.022222222222222223,61.955555555555556,0)" xlink:href="#E"/></g><path fill="#fff" d="M248 12C114 10 43-95 47-242c4-146 72-256 211-256 68 0 98 26 141 58l8-46h66v691h-83c0-87-2-177 4-259-35 31-84 66-146 66zm24-441c-97 0-138 83-140 186-2 104 39 186 134 186 59 0 90-30 124-67v-254c-35-31-64-51-118-51" id="aa"/><g id="k"><use transform="matrix(0.022222222222222223,0,0,0.022222222222222223,0,0)" xlink:href="#Y"/><use transform="matrix(0.022222222222222223,0,0,0.022222222222222223,12.68888888888889,0)" xlink:href="#E"/><use transform="matrix(0.022222222222222223,0,0,0.022222222222222223,23.711111111111112,0)" xlink:href="#aa"/><use transform="matrix(0.022222222222222223,0,0,0.022222222222222223,35.93333333333334,0)" xlink:href="#Z"/><use transform="matrix(0.022222222222222223,0,0,0.022222222222222223,48.022222222222226,0)" xlink:href="#E"/><use transform="matrix(0.022222222222222223,0,0,0.022222222222222223,59.044444444444444,0)" xlink:href="#I"/><use transform="matrix(0.022222222222222223,0,0,0.022222222222222223,68.35555555555557,0)" xlink:href="#R"/></g><path fill="#fff" d="M158-548c17 169 9 363 11 548H90v-656h86c103 183 212 359 308 548h4c-15-171-9-363-10-548h79V0h-86C368-183 259-359 162-548h-4" id="ab"/><path fill="#fff" d="M129-114c92 4 79 155 34 210-25 31-55 57-96 74l-20-48c48-22 89-59 90-122-38 5-69-18-69-56 0-35 28-59 61-58" id="ac"/><g id="l"><use transform="matrix(0.022222222222222223,0,0,0.022222222222222223,0,0)" xlink:href="#ab"/><use transform="matrix(0.022222222222222223,0,0,0.022222222222222223,14.377777777777778,0)" xlink:href="#E"/><use transform="matrix(0.022222222222222223,0,0,0.022222222222222223,25.511111111111113,0)" xlink:href="#V"/><use transform="matrix(0.022222222222222223,0,0,0.022222222222222223,40.55555555555556,0)" xlink:href="#ac"/></g><path fill="#fff" d="M125 12c-33 0-60-28-60-62 0-36 26-64 60-64 33 0 59 28 59 64 0 34-27 62-59 62" id="ad"/><g id="m"><use transform="matrix(0.022222222222222223,0,0,0.022222222222222223,0,0)" xlink:href="#E"/><use transform="matrix(0.022222222222222223,0,0,0.022222222222222223,10.71111111111111,0)" xlink:href="#R"/><use transform="matrix(0.022222222222222223,0,0,0.022222222222222223,18,0)" xlink:href="#X"/><use transform="matrix(0.022222222222222223,0,0,0.022222222222222223,28.133333333333333,0)" xlink:href="#ad"/></g><path fill="#fff" d="M49 134c97 31 140-55 158-133L12-486h85c49 135 100 267 146 406h4c40-138 84-271 128-406h80L272 40c-31 99-101 199-239 159" id="ae"/><g id="n"><use transform="matrix(0.022222222222222223,0,0,0.022222222222222223,0,0)" xlink:href="#U"/><use transform="matrix(0.022222222222222223,0,0,0.022222222222222223,13.066666666666666,0)" xlink:href="#Z"/><use transform="matrix(0.022222222222222223,0,0,0.022222222222222223,25.155555555555555,0)" xlink:href="#ae"/></g><path fill="#fff" d="M90-656h378v70H173v206h249v71H173v238h305V0H90v-656" id="af"/><g id="o"><use transform="matrix(0.022222222222222223,0,0,0.022222222222222223,0,0)" xlink:href="#af"/><use transform="matrix(0.022222222222222223,0,0,0.022222222222222223,11.711111111111112,0)" xlink:href="#M"/><use transform="matrix(0.022222222222222223,0,0,0.022222222222222223,24.044444444444444,0)" xlink:href="#P"/><use transform="matrix(0.022222222222222223,0,0,0.022222222222222223,29.511111111111113,0)" xlink:href="#R"/></g><g id="p"><use transform="matrix(0.022222222222222223,0,0,0.022222222222222223,0,0)" xlink:href="#T"/><use transform="matrix(0.022222222222222223,0,0,0.022222222222222223,11.866666666666667,0)" xlink:href="#E"/><use transform="matrix(0.022222222222222223,0,0,0.022222222222222223,22.88888888888889,0)" xlink:href="#E"/></g><path fill="#fff" d="M173-254L26-486h89c39 62 75 126 113 188h4c34-63 68-126 103-188h86L274-245 432 0h-89c-42-66-83-133-124-200h-4C176-134 140-65 100 0H14" id="ag"/><path fill="#fff" d="M167 0c-28 21-50 43-50 82 0 62 68 87 141 85 79-2 154-27 154-99 0-98-160-40-245-68zm79 224C139 224 45 194 45 93c0-52 35-84 71-110v-4c-23-15-43-40-43-79 0-42 30-73 53-90v-4c-30-26-63-73-63-131 0-132 122-199 252-161h169v63H384c21 21 40 58 40 100 0 132-129 200-251 152-16 14-31 29-31 58-1 71 108 51 180 53 101 3 170 24 170 116 0 121-115 168-246 168zM143-325c2 69 37 116 103 116s101-47 103-116c2-66-42-112-103-113-61 0-105 47-103 113" id="ah"/><g id="q"><use transform="matrix(0.022222222222222223,0,0,0.022222222222222223,0,0)" xlink:href="#af"/><use transform="matrix(0.022222222222222223,0,0,0.022222222222222223,11.711111111111112,0)" xlink:href="#ag"/><use transform="matrix(0.022222222222222223,0,0,0.022222222222222223,21.622222222222224,0)" xlink:href="#P"/><use transform="matrix(0.022222222222222223,0,0,0.022222222222222223,27.08888888888889,0)" xlink:href="#I"/><use transform="matrix(0.022222222222222223,0,0,0.022222222222222223,36.4,0)" xlink:href="#R"/><use transform="matrix(0.022222222222222223,0,0,0.022222222222222223,43.91111111111111,0)" xlink:href="#P"/><use transform="matrix(0.022222222222222223,0,0,0.022222222222222223,49.37777777777778,0)" xlink:href="#Q"/><use transform="matrix(0.022222222222222223,0,0,0.022222222222222223,61.53333333333334,0)" xlink:href="#ah"/></g><path fill="#fff" d="M12-486h85c46 139 93 277 137 419h4c42-142 90-280 136-419h81L283 0h-96" id="ai"/><g id="r"><use transform="matrix(0.022222222222222223,0,0,0.022222222222222223,0,0)" xlink:href="#Y"/><use transform="matrix(0.022222222222222223,0,0,0.022222222222222223,12.68888888888889,0)" xlink:href="#E"/><use transform="matrix(0.022222222222222223,0,0,0.022222222222222223,23.822222222222223,0)" xlink:href="#ai"/><use transform="matrix(0.022222222222222223,0,0,0.022222222222222223,34.2,0)" xlink:href="#P"/><use transform="matrix(0.022222222222222223,0,0,0.022222222222222223,39.66666666666667,0)" xlink:href="#E"/><use transform="matrix(0.022222222222222223,0,0,0.022222222222222223,50.80000000000001,0)" xlink:href="#V"/></g><path fill="#fff" d="M156-555c17 172 9 368 11 555H90v-656h98c58 162 117 324 175 486h4c55-164 115-324 172-486h98V0h-79c2-187-7-383 11-555h-4C506-391 446-229 386-66h-47c-60-163-121-324-179-489h-4" id="aj"/><g id="s"><use transform="matrix(0.022222222222222223,0,0,0.022222222222222223,0,0)" xlink:href="#aj"/><use transform="matrix(0.022222222222222223,0,0,0.022222222222222223,16.155555555555555,0)" xlink:href="#E"/><use transform="matrix(0.022222222222222223,0,0,0.022222222222222223,27.177777777777777,0)" xlink:href="#I"/><use transform="matrix(0.022222222222222223,0,0,0.022222222222222223,36.48888888888889,0)" xlink:href="#I"/><use transform="matrix(0.022222222222222223,0,0,0.022222222222222223,45.800000000000004,0)" xlink:href="#H"/><use transform="matrix(0.022222222222222223,0,0,0.022222222222222223,57.17777777777778,0)" xlink:href="#ah"/><use transform="matrix(0.022222222222222223,0,0,0.022222222222222223,68.06666666666666,0)" xlink:href="#E"/></g><path fill="#fff" d="M96-486c-15-151 31-266 186-234 14 3 26 7 37 12l-18 63c-66-29-128-8-123 82v77h103v67H178V0H96v-419H30v-62" id="ak"/><g id="t"><use transform="matrix(0.022222222222222223,0,0,0.022222222222222223,0,0)" xlink:href="#T"/><use transform="matrix(0.022222222222222223,0,0,0.022222222222222223,11.866666666666667,0)" xlink:href="#R"/><use transform="matrix(0.022222222222222223,0,0,0.022222222222222223,18.977777777777778,0)" xlink:href="#H"/><use transform="matrix(0.022222222222222223,0,0,0.022222222222222223,30.355555555555558,0)" xlink:href="#ak"/><use transform="matrix(0.022222222222222223,0,0,0.022222222222222223,36.84444444444444,0)" xlink:href="#ak"/></g><path fill="#fff" d="M90-656h83v585h287V0H90v-656" id="al"/><g id="u"><use transform="matrix(0.022222222222222223,0,0,0.022222222222222223,0,0)" xlink:href="#al"/><use transform="matrix(0.022222222222222223,0,0,0.022222222222222223,10.8,0)" xlink:href="#P"/><use transform="matrix(0.022222222222222223,0,0,0.022222222222222223,16.266666666666666,0)" xlink:href="#W"/><use transform="matrix(0.022222222222222223,0,0,0.022222222222222223,26.866666666666667,0)" xlink:href="#E"/></g><use transform="matrix(0.022222222222222223,0,0,0.022222222222222223,0,0)" xlink:href="#F" id="v"/><g id="w"><use transform="matrix(0.022222222222222223,0,0,0.022222222222222223,0,0)" xlink:href="#T"/><use transform="matrix(0.022222222222222223,0,0,0.022222222222222223,11.866666666666667,0)" xlink:href="#J"/><use transform="matrix(0.022222222222222223,0,0,0.022222222222222223,23.955555555555556,0)" xlink:href="#H"/><use transform="matrix(0.022222222222222223,0,0,0.022222222222222223,35.333333333333336,0)" xlink:href="#L"/><use transform="matrix(0.022222222222222223,0,0,0.022222222222222223,42.82222222222222,0)" xlink:href="#E"/></g><path fill="#333" d="M533-463c0 144-98 200-242 203H173V0H90v-656h201c145 0 242 48 242 193zm-83 0c5-141-139-126-277-126v261h108c107-1 165-34 169-135" id="am"/><path fill="#333" d="M334-416c-89-26-142 29-170 104V0H82v-486h68l7 88h3c31-63 101-124 190-90" id="an"/><path fill="#333" d="M181-639c0 30-26 53-57 53s-57-23-57-53c0-31 26-53 57-53s57 22 57 53zM82-486h82V0H82v-486" id="ao"/><path fill="#333" d="M377-297c-1-82-18-130-91-130-37 0-77 25-122 75V0H82v-486h68l7 70h3c38-39 82-81 151-82 77 0 114 36 134 93 44-45 84-93 160-93 109 0 148 74 148 190V0h-82v-297c-1-81-18-130-90-130-37 0-77 25-122 75V0h-82v-297" id="ap"/><path fill="#333" d="M201 12C118 12 58-40 58-126c0-53 24-94 72-122s123-49 227-60c-1-72-27-121-100-122-60-1-108 28-145 52l-33-57c46-28 114-63 191-63 121 0 168 82 169 200V0h-68c-4-19-2-42-9-58-42 33-92 70-161 70zm23-66c62-5 93-31 133-65v-135c-89 14-171 22-207 80-36 57 6 125 74 120" id="aq"/><path fill="#333" d="M49 134c97 31 140-55 158-133L12-486h85c49 135 100 267 146 406h4c40-138 84-271 128-406h80L272 40c-31 99-101 199-239 159" id="ar"/><g id="x"><use transform="matrix(0.017777777777777774,0,0,0.017777777777777774,0,0)" xlink:href="#am"/><use transform="matrix(0.017777777777777774,0,0,0.017777777777777774,10.239999999999998,0)" xlink:href="#an"/><use transform="matrix(0.017777777777777774,0,0,0.017777777777777774,16.408888888888885,0)" xlink:href="#ao"/><use transform="matrix(0.017777777777777774,0,0,0.017777777777777774,20.782222222222217,0)" xlink:href="#ap"/><use transform="matrix(0.017777777777777774,0,0,0.017777777777777774,35.51999999999999,0)" xlink:href="#aq"/><use transform="matrix(0.017777777777777774,0,0,0.017777777777777774,44.622222222222206,0)" xlink:href="#an"/><use transform="matrix(0.017777777777777774,0,0,0.017777777777777774,51.12888888888887,0)" xlink:href="#ar"/></g><path fill="#333" d="M374-191C441-40 261 57 110-7 79-20 51-36 28-55l41-55c40 31 77 52 143 58 87 8 128-92 60-134-81-50-214-50-220-174-7-157 230-170 318-83l-39 52c-30-22-63-38-111-43-80-8-120 85-56 122 69 40 177 47 210 121" id="as"/><path fill="#333" d="M274 12C124 12 46-89 46-242c0-154 84-249 234-256 64-3 108 29 142 58l-41 53c-27-22-53-43-98-43-104 0-152 81-152 188S178-60 281-56c50 2 87-25 114-49l37 54c-39 34-91 63-158 63" id="at"/><path fill="#333" d="M279 12C129 6 46-87 46-242c0-148 77-256 218-256 148 0 205 117 191 273H127c4 97 64 171 162 171 51 0 87-18 121-38l29 54c-42 25-92 53-160 50zm107-291c7-109-70-183-170-143-53 21-83 73-90 143h260" id="au"/><path fill="#333" d="M297-427c-68 0-89 36-133 75V0H82v-486h68l7 70h3c43-40 85-82 163-82 111 0 147 74 148 190V0h-82v-297c-1-82-18-130-92-130" id="av"/><g id="y"><use transform="matrix(0.017777777777777774,0,0,0.017777777777777774,0,0)" xlink:href="#as"/><use transform="matrix(0.017777777777777774,0,0,0.017777777777777774,7.448888888888887,0)" xlink:href="#at"/><use transform="matrix(0.017777777777777774,0,0,0.017777777777777774,15.555555555555555,0)" xlink:href="#an"/><use transform="matrix(0.017777777777777774,0,0,0.017777777777777774,21.546666666666663,0)" xlink:href="#au"/><use transform="matrix(0.017777777777777774,0,0,0.017777777777777774,30.364444444444437,0)" xlink:href="#au"/><use transform="matrix(0.017777777777777774,0,0,0.017777777777777774,39.182222222222215,0)" xlink:href="#av"/></g><path fill="#333" d="M235 12C135 12 96-49 96-150v-269H24v-62l76-5 10-136h69v136h131v67H179v270c1 58 17 94 75 94 19 0 41-7 55-13l16 62c-25 8-58 18-90 18" id="aw"/><path fill="#333" d="M12-486h85c46 139 93 277 137 419h4c42-142 90-280 136-419h81L283 0h-96" id="ax"/><g id="z"><use transform="matrix(0.017777777777777774,0,0,0.017777777777777774,0,0)" xlink:href="#aq"/><use transform="matrix(0.017777777777777774,0,0,0.017777777777777774,9.10222222222222,0)" xlink:href="#at"/><use transform="matrix(0.017777777777777774,0,0,0.017777777777777774,17.208888888888886,0)" xlink:href="#aw"/><use transform="matrix(0.017777777777777774,0,0,0.017777777777777774,23.217777777777773,0)" xlink:href="#ao"/><use transform="matrix(0.017777777777777774,0,0,0.017777777777777774,27.591111111111104,0)" xlink:href="#ax"/><use transform="matrix(0.017777777777777774,0,0,0.017777777777777774,35.893333333333324,0)" xlink:href="#ao"/><use transform="matrix(0.017777777777777774,0,0,0.017777777777777774,40.26666666666666,0)" xlink:href="#aw"/><use transform="matrix(0.017777777777777774,0,0,0.017777777777777774,46.27555555555555,0)" xlink:href="#ao"/><use transform="matrix(0.017777777777777774,0,0,0.017777777777777774,50.648888888888884,0)" xlink:href="#au"/><use transform="matrix(0.017777777777777774,0,0,0.017777777777777774,59.46666666666666,0)" xlink:href="#as"/></g><path fill="#333" d="M484-238C550-39 325 64 144-14 105-31 71-55 42-85l50-58c40 43 104 74 181 82 133 14 185-145 71-202-108-54-270-71-270-231 0-151 176-210 315-152 34 14 62 35 85 59l-45 54c-37-35-82-56-149-62-101-9-166 104-87 165 91 70 252 74 291 192" id="ay"/><path fill="#333" d="M271 12C125 12 46-91 46-242c0-152 79-256 225-256s225 104 225 256c0 151-79 254-225 254zm0-442c-100 0-140 84-140 188S172-56 271-56s140-82 140-186-40-188-140-188" id="az"/><path fill="#333" d="M248 12C114 10 43-95 47-242c4-146 72-256 211-256 65 0 96 26 136 56-6-85-3-179-4-270h83V0h-68l-7-57h-3c-35 32-83 69-147 69zm24-441c-97 0-138 83-140 186-2 104 39 186 134 186 59 0 90-30 124-67v-254c-35-31-64-51-118-51" id="aA"/><g id="A"><use transform="matrix(0.017777777777777774,0,0,0.017777777777777774,0,0)" xlink:href="#ay"/><use transform="matrix(0.017777777777777774,0,0,0.017777777777777774,9.493333333333332,0)" xlink:href="#au"/><use transform="matrix(0.017777777777777774,0,0,0.017777777777777774,18.31111111111111,0)" xlink:href="#at"/><use transform="matrix(0.017777777777777774,0,0,0.017777777777777774,26.04444444444444,0)" xlink:href="#az"/><use transform="matrix(0.017777777777777774,0,0,0.017777777777777774,35.67999999999999,0)" xlink:href="#av"/><use transform="matrix(0.017777777777777774,0,0,0.017777777777777774,45.40444444444444,0)" xlink:href="#aA"/><use transform="matrix(0.017777777777777774,0,0,0.017777777777777774,55.271111111111104,0)" xlink:href="#aq"/><use transform="matrix(0.017777777777777774,0,0,0.017777777777777774,64.37333333333332,0)" xlink:href="#an"/><use transform="matrix(0.017777777777777774,0,0,0.017777777777777774,70.87999999999998,0)" xlink:href="#ar"/></g></defs></g></svg>