<svg xmlns="http://www.w3.org/2000/svg" width="42.652" height="50.087" viewBox="0 0 42.652 50.087">
  <g id="iconfinder_104471_android_icon" transform="translate(-7.021 -4.374)">
    <path id="Path_1" data-name="Path 1" d="M35.021,8.568l.547-.819.537-.808,1.209-1.813a.485.485,0,1,0-.807-.537L35.212,6.535l-.545.817-.553.828a16.218,16.218,0,0,0-11.534,0l-.55-.828-.545-.817-1.3-1.945a.485.485,0,1,0-.807.537L20.589,6.94l.539.808.547.819c-4.115,1.916-6.9,5.546-6.9,9.7H41.919C41.919,14.114,39.136,10.484,35.021,8.568ZM22.532,14.391a1.453,1.453,0,1,1,1.453-1.454A1.454,1.454,0,0,1,22.532,14.391Zm11.631,0a1.454,1.454,0,1,1,1.455-1.454A1.453,1.453,0,0,1,34.163,14.391Z" fill="#5a4c43"/>
    <path id="Path_2" data-name="Path 2" d="M14.986,20.208h-.209V41.535a3.072,3.072,0,0,0,3.069,3.07h2.216a2.9,2.9,0,0,0-.116.807v6.141a2.908,2.908,0,0,0,5.817,0V45.412a2.986,2.986,0,0,0-.115-.807h5.4a2.9,2.9,0,0,0-.115.807v6.141a2.908,2.908,0,1,0,5.816,0V45.412a2.909,2.909,0,0,0-.115-.807h2.215a3.073,3.073,0,0,0,3.07-3.07V20.208H14.986Z" fill="#5a4c43"/>
    <path id="Path_3" data-name="Path 3" d="M9.929,20.208a2.908,2.908,0,0,0-2.908,2.909V35.556a2.908,2.908,0,1,0,5.816,0V23.116A2.907,2.907,0,0,0,9.929,20.208Z" fill="#5a4c43"/>
    <path id="Path_4" data-name="Path 4" d="M46.767,20.208a2.907,2.907,0,0,0-2.908,2.909V35.556a2.907,2.907,0,1,0,5.814,0V23.116A2.906,2.906,0,0,0,46.767,20.208Z" fill="#5a4c43"/>
  </g>
</svg>
